<svg width="100" height="100" viewBox="0 0 100 100" fill="none" xmlns="http://www.w3.org/2000/svg">
  <defs>
    <linearGradient id="a" x1="0%" y1="0%" x2="100%" y2="100%">
      <stop offset="0%"   stop-color="#00F0FF"/>
      <stop offset="50%"  stop-color="#9945FF"/>
      <stop offset="100%" stop-color="#FF2EF7"/>
    </linearGradient>
    <linearGradient id="b" x1="100%" y1="0%" x2="0%" y2="100%">
      <stop offset="0%"   stop-color="#4DA2FF"/>
      <stop offset="100%" stop-color="#00F0FF"/>
    </linearGradient>
  </defs>

  <!-- 6 main arms -->
  <g transform="rotate(0 50 50)">
    <line x1="50" y1="50" x2="50" y2="8"   stroke="url(#a)" stroke-width="3" stroke-linecap="round"/>
    <line x1="50" y1="20" x2="42" y2="13"  stroke="url(#b)" stroke-width="2" stroke-linecap="round"/>
    <line x1="50" y1="20" x2="58" y2="13"  stroke="url(#b)" stroke-width="2" stroke-linecap="round"/>
    <line x1="50" y1="32" x2="44" y2="26"  stroke="url(#b)" stroke-width="1.8" stroke-linecap="round"/>
    <line x1="50" y1="32" x2="56" y2="26"  stroke="url(#b)" stroke-width="1.8" stroke-linecap="round"/>
    <circle cx="50" cy="9" r="2" fill="url(#a)"/>
  </g>
  <g transform="rotate(60 50 50)">
    <line x1="50" y1="50" x2="50" y2="8"   stroke="url(#a)" stroke-width="3" stroke-linecap="round"/>
    <line x1="50" y1="20" x2="42" y2="13"  stroke="url(#b)" stroke-width="2" stroke-linecap="round"/>
    <line x1="50" y1="20" x2="58" y2="13"  stroke="url(#b)" stroke-width="2" stroke-linecap="round"/>
    <line x1="50" y1="32" x2="44" y2="26"  stroke="url(#b)" stroke-width="1.8" stroke-linecap="round"/>
    <line x1="50" y1="32" x2="56" y2="26"  stroke="url(#b)" stroke-width="1.8" stroke-linecap="round"/>
    <circle cx="50" cy="9" r="2" fill="url(#a)"/>
  </g>
  <g transform="rotate(120 50 50)">
    <line x1="50" y1="50" x2="50" y2="8"   stroke="url(#a)" stroke-width="3" stroke-linecap="round"/>
    <line x1="50" y1="20" x2="42" y2="13"  stroke="url(#b)" stroke-width="2" stroke-linecap="round"/>
    <line x1="50" y1="20" x2="58" y2="13"  stroke="url(#b)" stroke-width="2" stroke-linecap="round"/>
    <line x1="50" y1="32" x2="44" y2="26"  stroke="url(#b)" stroke-width="1.8" stroke-linecap="round"/>
    <line x1="50" y1="32" x2="56" y2="26"  stroke="url(#b)" stroke-width="1.8" stroke-linecap="round"/>
    <circle cx="50" cy="9" r="2" fill="url(#a)"/>
  </g>
  <g transform="rotate(180 50 50)">
    <line x1="50" y1="50" x2="50" y2="8"   stroke="url(#a)" stroke-width="3" stroke-linecap="round"/>
    <line x1="50" y1="20" x2="42" y2="13"  stroke="url(#b)" stroke-width="2" stroke-linecap="round"/>
    <line x1="50" y1="20" x2="58" y2="13"  stroke="url(#b)" stroke-width="2" stroke-linecap="round"/>
    <line x1="50" y1="32" x2="44" y2="26"  stroke="url(#b)" stroke-width="1.8" stroke-linecap="round"/>
    <line x1="50" y1="32" x2="56" y2="26"  stroke="url(#b)" stroke-width="1.8" stroke-linecap="round"/>
    <circle cx="50" cy="9" r="2" fill="url(#a)"/>
  </g>
  <g transform="rotate(240 50 50)">
    <line x1="50" y1="50" x2="50" y2="8"   stroke="url(#a)" stroke-width="3" stroke-linecap="round"/>
    <line x1="50" y1="20" x2="42" y2="13"  stroke="url(#b)" stroke-width="2" stroke-linecap="round"/>
    <line x1="50" y1="20" x2="58" y2="13"  stroke="url(#b)" stroke-width="2" stroke-linecap="round"/>
    <line x1="50" y1="32" x2="44" y2="26"  stroke="url(#b)" stroke-width="1.8" stroke-linecap="round"/>
    <line x1="50" y1="32" x2="56" y2="26"  stroke="url(#b)" stroke-width="1.8" stroke-linecap="round"/>
    <circle cx="50" cy="9" r="2" fill="url(#a)"/>
  </g>
  <g transform="rotate(300 50 50)">
    <line x1="50" y1="50" x2="50" y2="8"   stroke="url(#a)" stroke-width="3" stroke-linecap="round"/>
    <line x1="50" y1="20" x2="42" y2="13"  stroke="url(#b)" stroke-width="2" stroke-linecap="round"/>
    <line x1="50" y1="20" x2="58" y2="13"  stroke="url(#b)" stroke-width="2" stroke-linecap="round"/>
    <line x1="50" y1="32" x2="44" y2="26"  stroke="url(#b)" stroke-width="1.8" stroke-linecap="round"/>
    <line x1="50" y1="32" x2="56" y2="26"  stroke="url(#b)" stroke-width="1.8" stroke-linecap="round"/>
    <circle cx="50" cy="9" r="2" fill="url(#a)"/>
  </g>

  <!-- 6 inner ticks -->
  <g transform="rotate(30 50 50)">
    <line x1="50" y1="50" x2="50" y2="38" stroke="#4DA2FF" stroke-width="1.2" stroke-linecap="round" opacity="0.5"/>
    <line x1="46" y1="39" x2="54" y2="39" stroke="#00F0FF" stroke-width="1.2" stroke-linecap="round" opacity="0.6"/>
  </g>
  <g transform="rotate(90 50 50)">
    <line x1="50" y1="50" x2="50" y2="38" stroke="#4DA2FF" stroke-width="1.2" stroke-linecap="round" opacity="0.5"/>
    <line x1="46" y1="39" x2="54" y2="39" stroke="#00F0FF" stroke-width="1.2" stroke-linecap="round" opacity="0.6"/>
  </g>
  <g transform="rotate(150 50 50)">
    <line x1="50" y1="50" x2="50" y2="38" stroke="#4DA2FF" stroke-width="1.2" stroke-linecap="round" opacity="0.5"/>
    <line x1="46" y1="39" x2="54" y2="39" stroke="#00F0FF" stroke-width="1.2" stroke-linecap="round" opacity="0.6"/>
  </g>
  <g transform="rotate(210 50 50)">
    <line x1="50" y1="50" x2="50" y2="38" stroke="#4DA2FF" stroke-width="1.2" stroke-linecap="round" opacity="0.5"/>
    <line x1="46" y1="39" x2="54" y2="39" stroke="#00F0FF" stroke-width="1.2" stroke-linecap="round" opacity="0.6"/>
  </g>
  <g transform="rotate(270 50 50)">
    <line x1="50" y1="50" x2="50" y2="38" stroke="#4DA2FF" stroke-width="1.2" stroke-linecap="round" opacity="0.5"/>
    <line x1="46" y1="39" x2="54" y2="39" stroke="#00F0FF" stroke-width="1.2" stroke-linecap="round" opacity="0.6"/>
  </g>
  <g transform="rotate(330 50 50)">
    <line x1="50" y1="50" x2="50" y2="38" stroke="#4DA2FF" stroke-width="1.2" stroke-linecap="round" opacity="0.5"/>
    <line x1="46" y1="39" x2="54" y2="39" stroke="#00F0FF" stroke-width="1.2" stroke-linecap="round" opacity="0.6"/>
  </g>

  <!-- Center hexagon -->
  <polygon points="50,42 57,46 57,54 50,58 43,54 43,46"
    fill="none" stroke="url(#a)" stroke-width="1.5" opacity="0.8"/>

  <!-- Center dot -->
  <circle cx="50" cy="50" r="4" fill="url(#a)"/>
  <circle cx="50" cy="50" r="2" fill="white" opacity="0.9"/>
</svg>
